<?xml version="1.0" encoding="UTF-8"?><svg xmlns="http://www.w3.org/2000/svg" xmlns:xlink="http://www.w3.org/1999/xlink" height="56.0" preserveAspectRatio="xMidYMid meet" version="1.0" viewBox="4.0 4.0 56.0 56.0" width="56.0" zoomAndPan="magnify"><g fill-rule="evenodd" id="change1_1"><path d="M 32 4 C 16.546875 4 4 16.546875 4 32 C 4 47.453125 16.546875 60 32 60 C 47.453125 60 60 47.453125 60 32 C 60 16.546875 47.453125 4 32 4 Z M 32 8 C 45.246094 8 56 18.753906 56 32 C 56 45.246094 45.246094 56 32 56 C 18.753906 56 8 45.246094 8 32 C 8 18.753906 18.753906 8 32 8" fill="inherit"/><path d="M 35.171875 32 L 24.585938 21.414062 C 23.804688 20.632812 23.804688 19.367188 24.585938 18.585938 C 25.367188 17.804688 26.632812 17.804688 27.414062 18.585938 L 39.414062 30.585938 C 40.195312 31.367188 40.195312 32.632812 39.414062 33.414062 L 27.414062 45.414062 C 26.632812 46.195312 25.367188 46.195312 24.585938 45.414062 C 23.804688 44.632812 23.804688 43.367188 24.585938 42.585938 L 35.171875 32" fill="inherit"/></g></svg>